<svg xmlns="http://www.w3.org/2000/svg" version="1.1" xmlns:xlink="http://www.w3.org/1999/xlink" xmlns:svgjs="http://svgjs.dev/svgjs" viewBox="0 0 800 800" opacity="0.35"><defs><symbol id="bbburst-shape-1" viewBox="0 0 194 167"><path d="m97 0 96.129 166.5H.871L97 0Z"></path></symbol><symbol id="bbburst-shape-4" viewBox="0 0 149 143"><path d="M71.647 2.781c.898-2.764 4.808-2.764 5.706 0l15.445 47.534a3 3 0 0 0 2.853 2.073h49.98c2.906 0 4.115 3.719 1.764 5.427L106.96 87.193a2.999 2.999 0 0 0-1.09 3.354l15.445 47.534c.898 2.764-2.266 5.062-4.617 3.354l-40.435-29.378a3 3 0 0 0-3.526 0l-40.435 29.378c-2.351 1.708-5.515-.59-4.617-3.354L43.13 90.547a3 3 0 0 0-1.09-3.354L1.605 57.815c-2.35-1.708-1.142-5.427 1.764-5.427h49.98a3 3 0 0 0 2.853-2.073L71.647 2.781Z"></path></symbol><symbol id="bbburst-shape-5" viewBox="0 0 145 145"><circle cx="72.5" cy="72.5" r="72.5"></circle></symbol><symbol id="bbburst-shape-6" viewBox="0 0 133 116"><path d="M59.7487 10.2513c-13.6683-13.66839-35.8291-13.66839-49.4974 0-13.66839 13.6683-13.66839 35.8291 0 49.4974l49.4974-49.4974ZM66.5 66.5 41.7513 91.2487 66.5 115.997l24.7487-24.7483L66.5 66.5Zm56.249-6.7513c13.668-13.6683 13.668-35.8291 0-49.4974-13.669-13.66839-35.8294-13.66839-49.4977 0l49.4977 49.4974Zm-112.4977 0 31.5 31.5 49.4974-49.4974-31.5-31.5-49.4974 49.4974Zm80.9974 31.5 31.5003-31.5-49.4977-49.4974-31.5 31.5 49.4974 49.4974Z"></path></symbol><symbol id="bbburst-shape-7" viewBox="0 0 139 124"><path fill-rule="evenodd" clip-rule="evenodd" d="M70.1641 15.0917C54.6093.764854 37.8293-2.10782 24.4032 2.82615 10.3804 7.97941.763366 21.4591 1.00047 37.0608c.1068 7.0273 2.86132 13.7317 7.0039 20.2001C12.1442 63.7249 17.853 70.2322 24.25 76.9024c3.8209 3.9842 7.8871 8.0312 12.0767 12.201h.0001c10.0335 9.9862 20.7748 20.6766 30.5497 32.8956 1.38 1.725 3.8972 2.005 5.6223.624.6706-.536 1.1228-1.244 1.3439-2.011 9.5768-11.748 20.0328-22.0735 29.8163-31.7351 4.19-4.1373 8.256-8.1528 12.078-12.1062 6.396-6.6176 12.106-13.0752 16.247-19.4911 4.144-6.4196 6.905-13.0811 7.012-20.0691.237-15.5124-9.399-28.8902-23.411-33.99923-13.32-4.85681-29.9542-2.08621-45.4209 11.88043Zm-3.7351 7.4919C52.1278 8.44857 37.6826 6.46918 27.1626 10.3352 16.2859 14.3323 8.8148 24.7824 8.99955 36.9392c.07575 4.9844 2.03755 10.2234 5.74165 16.0072 3.707 5.7881 8.9752 11.8418 15.2827 18.4187 3.5798 3.7328 7.4978 7.6329 11.6 11.7163 9.0476 9.0063 18.9911 18.9046 28.1786 29.8666 9.2999-11.068 19.4036-21.0473 28.5839-30.1144l.0007-.0006c4.1019-4.0508 8.0189-7.9196 11.5979-11.6222 6.307-6.5252 11.573-12.5298 15.278-18.2697 3.703-5.7362 5.658-10.924 5.734-15.8531.184-12.0276-7.267-22.3914-18.153-26.3608-10.71-3.90518-25.4722-1.80041-40.0023 12.867-1.5547 1.5694-4.0874 1.5813-5.6568.0265-.3146-.3116-.5666-.6625-.7559-1.0371Z"></path></symbol><symbol id="bbburst-shape-8" viewBox="0 0 87 168"><path d="m12 12 31.2546 18.0749c16.4102 9.4902 20.014 31.6325 7.4603 45.8369L36.3296 92.1884c-12.5684 14.2206-8.9394 36.3916 7.5068 45.8636L75 156" stroke-width="14" stroke-linecap="round" stroke-linejoin="round"></path></symbol><symbol id="bbburst-shape-10" viewBox="0 0 145 145"><circle cx="72.5" cy="72.5" r="61.5" fill="none" stroke-width="22"></circle></symbol><symbol id="bbburst-shape-12" viewBox="0 0 170 151"><path d="M69.3728 54.2122 85 10.0031l15.627 44.2091c1.413 3.9958 5.19 6.6672 9.428 6.6673h49.312l-39.149 26.1447c-3.803 2.5401-5.399 7.3367-3.875 11.6488l15.179 42.94-40.9683-27.36c-3.3621-2.245-7.7453-2.245-11.1074 0l-40.9682 27.36 15.1785-42.94c1.5243-4.3121-.0712-9.1087-3.8746-11.6488L10.6333 60.8795h49.3112c4.2381-.0001 8.0159-2.6715 9.4283-6.6673Z" stroke-width="12"></path></symbol><symbol id="bbburst-shape-14" viewBox="0 0 185 109"><path d="M168 16.5C168 58.1975 134.197 92 92.5 92 50.8025 92 17 58.1975 17 16.5" stroke-width="33" stroke-linecap="round"></path></symbol></defs><use xlink:href="#bbburst-shape-6" width="20.022568285411598" opacity="0.514127084605648" transform="matrix(0.8660080787377746,0.5000300066605086,-0.5000300066605086,0.8660080787377746,460.7104159179358,-126.73742671330928)" fill="#00a19d"></use><use xlink:href="#bbburst-shape-14" width="16.6501759796553" opacity="0.6569570336662227" transform="matrix(0.9999928784803709,0.0037739884131109463,-0.0037739884131109463,0.9999928784803709,366.8052953926982,152.0926893722397)" fill="none" stroke="#ffa6d5"></use><use xlink:href="#bbburst-shape-4" width="22.03713850377237" opacity="0.5893042415829715" transform="matrix(0.8607322916970923,0.5090578768960083,-0.5090578768960083,0.8607322916970923,409.3160927556785,50.429141870254625)" fill="#ffa6d5"></use><use xlink:href="#bbburst-shape-6" width="8.78592919015783" opacity="0.9442402473209804" transform="matrix(0.7949732953130095,-0.6066444261172887,0.6066444261172887,0.7949732953130095,171.10625875546765,66.45967851021015)" fill="#ff5c58"></use><use xlink:href="#bbburst-shape-6" width="13.400108663297004" opacity="0.7425756513536458" transform="matrix(0.9995850372073626,0.02880544030483723,-0.02880544030483723,0.9995850372073626,352.32680984130684,-103.28903934654232)" fill="#ffa6d5"></use><use xlink:href="#bbburst-shape-1" width="10.298712068747017" opacity="0.9239008574311064" transform="matrix(0.8116160280265406,0.5841912555408729,-0.5841912555408729,0.8116160280265406,596.8453329437339,62.00943002112757)" fill="#2c2891"></use><use xlink:href="#bbburst-shape-8" width="10.469143939306566" opacity="0.905499881063988" transform="matrix(0.8002908012479754,-0.5996120691229235,0.5996120691229235,0.8002908012479754,133.08645118683958,47.17679394490392)" fill="none" stroke="#2c2891"></use><use xlink:href="#bbburst-shape-4" width="9.781123486756465" opacity="0.8526295643434108" transform="matrix(0.9987060298391685,0.05085534350376512,-0.05085534350376512,0.9987060298391685,441.0297495502782,61.46566189489971)" fill="#2c2891"></use><use xlink:href="#bbburst-shape-10" width="18.408231414347433" opacity="0.710386643173007" transform="matrix(0.8951926439056324,0.4456794030435372,-0.4456794030435372,0.8951926439056324,642.0976440608758,-70.76761502651107)" fill="none" stroke="#00a19d"></use><use xlink:href="#bbburst-shape-12" width="30.93703750875395" opacity="0.430305200832921" transform="matrix(0.8937325105586987,0.4486002670200337,-0.4486002670200337,0.8937325105586987,310.26139996025677,57.95235489586207)" fill="none" stroke="#00a19d"></use><use xlink:href="#bbburst-shape-14" width="7.90768707431977" opacity="0.9474452903089585" transform="matrix(0.9980982979999133,-0.06164241664370531,0.06164241664370531,0.9980982979999133,382.73154888010174,21.771770879183066)" fill="none" stroke="#ffa6d5"></use><use xlink:href="#bbburst-shape-1" width="10.88126881931983" opacity="0.8343615517944802" transform="matrix(0.9750144713092511,-0.22214135305597976,0.22214135305597976,0.9750144713092511,377.92106025662514,-7.7676861196090385)" fill="#00a19d"></use><use xlink:href="#bbburst-shape-5" width="24.865807691380375" opacity="0.5252707421475424" transform="matrix(0.8863661413143569,-0.4629849495734149,0.4629849495734149,0.8863661413143569,131.11691045124064,252.09833705139738)" fill="#ffa6d5"></use><use xlink:href="#bbburst-shape-14" width="48.54570559174698" opacity="0.14136500568093902" transform="matrix(0.9433895932765284,0.3316867125730943,-0.3316867125730943,0.9433895932765284,342.87296370010415,363.1441170355835)" fill="none" stroke="#ff5c58"></use><use xlink:href="#bbburst-shape-14" width="9.24980325221641" opacity="0.982685279825126" transform="matrix(0.769714066281571,-0.6383887970259889,0.6383887970259889,0.769714066281571,148.75852886080963,96.47041802138716)" fill="none" stroke="#ff5c58"></use><use xlink:href="#bbburst-shape-4" width="24.346473961794764" opacity="0.47290816537833735" transform="matrix(0.99391227601079,-0.11017435089462174,0.11017435089462174,0.99391227601079,504.5197466252023,-170.67141889414933)" fill="#ffa6d5"></use><use xlink:href="#bbburst-shape-5" width="14.151964659828474" opacity="0.8117421904975637" transform="matrix(0.995480889636091,0.09496208911632481,-0.09496208911632481,0.995480889636091,373.72779748656484,-61.342095428086964)" fill="#ffa6d5"></use><use xlink:href="#bbburst-shape-10" width="15.294670983567087" opacity="0.6982896359389033" transform="matrix(0.9127187942925882,-0.4085883044643889,0.4085883044643889,0.9127187942925882,172.76118278785188,161.34354056302072)" fill="none" stroke="#ffa6d5"></use><use xlink:href="#bbburst-shape-14" width="7.818308481879948" opacity="0.8812448547770901" transform="matrix(0.8640109746179827,0.5034729741899595,-0.5034729741899595,0.8640109746179827,632.7719802188627,93.02183915527047)" fill="none" stroke="#00a19d"></use><use xlink:href="#bbburst-shape-14" width="12.680424963537863" opacity="0.7873116535384745" transform="matrix(0.9901173322576305,-0.1402414644926134,0.1402414644926134,0.9901173322576305,242.37869525448508,-4.514966052275611)" fill="none" stroke="#00a19d"></use><use xlink:href="#bbburst-shape-7" width="18.408233570471698" opacity="0.7138613589210037" transform="matrix(0.9709282493737587,0.2393707053254603,-0.2393707053254603,0.9709282493737587,358.9271503832773,24.937280023904975)" fill="#ffa6d5"></use><use xlink:href="#bbburst-shape-7" width="8.71346930824035" opacity="0.9651685414167399" transform="matrix(0.7105259520379046,0.7036709966174741,-0.7036709966174741,0.7105259520379046,664.3029727921871,119.64868497657051)" fill="#ff5c58"></use><use xlink:href="#bbburst-shape-8" width="39.65213994523384" opacity="0.061535465085123975" transform="matrix(0.943148547025751,-0.3323715063648127,0.3323715063648127,0.943148547025751,597.6398469924992,266.69756039926006)" fill="none" stroke="#ffa6d5"></use><use xlink:href="#bbburst-shape-14" width="13.10931376128229" opacity="0.7756887070373061" transform="matrix(0.9995461263119299,0.030125427379797943,-0.030125427379797943,0.9995461263119299,312.5644957460307,39.400664162309795)" fill="none" stroke="#ffa6d5"></use><use xlink:href="#bbburst-shape-4" width="33.039166995211396" opacity="0.2691526722695815" transform="matrix(0.997943290922992,0.06410294924407503,-0.06410294924407503,0.997943290922992,731.1887561700056,-66.96155490704649)" fill="#ff5c58"></use><use xlink:href="#bbburst-shape-4" width="12.97273571971662" opacity="0.762146841589658" transform="matrix(0.8301336198066291,-0.5575645014406342,0.5575645014406342,0.8301336198066291,160.7066063830473,178.05142723015325)" fill="#ffbd9b"></use><use xlink:href="#bbburst-shape-7" width="24.54780788302873" opacity="0.4378912986074379" transform="matrix(0.9466894992788717,0.32214746926697896,-0.32214746926697896,0.9466894992788717,323.8458701221051,-145.80163154112884)" fill="#ffbd9b"></use><use xlink:href="#bbburst-shape-8" width="10.198577243159725" opacity="0.8710245853252447" transform="matrix(0.9114369527280111,0.4114397661892652,-0.4114397661892652,0.9114369527280111,545.4934604416803,89.5424288552598)" fill="none" stroke="#00a19d"></use><use xlink:href="#bbburst-shape-6" width="35.33065234057126" opacity="0.27783048021609047" transform="matrix(0.915274053574942,0.40283173516059306,-0.40283173516059306,0.915274053574942,834.0442374030873,175.24054143747793)" fill="#2c2891"></use><use xlink:href="#bbburst-shape-6" width="13.5043799638556" opacity="0.7425212544523987" transform="matrix(0.9866665865705232,-0.16275456044385414,0.16275456044385414,0.9866665865705232,251.28298045840344,93.05248402949087)" fill="#2c2891"></use><use xlink:href="#bbburst-shape-7" width="33.448946447583936" opacity="0.0869004121946767" transform="matrix(0.9747526981297433,-0.2232872085202945,0.2232872085202945,0.9747526981297433,-65.44480780319682,-184.75689965760668)" fill="#ffa6d5"></use><use xlink:href="#bbburst-shape-7" width="28.415151825500736" opacity="0.4760676489198" transform="matrix(0.7408719107540238,0.6716463443328503,-0.6716463443328503,0.7408719107540238,760.3804777380305,-118.37773414729699)" fill="#00a19d"></use><use xlink:href="#bbburst-shape-4" width="39.42784712763609" opacity="0.20390830430288043" transform="matrix(0.9334544225981061,-0.35869602859808253,0.35869602859808253,0.9334544225981061,536.7648388425961,-164.15436692498008)" fill="#ffa6d5"></use><use xlink:href="#bbburst-shape-14" width="22.29046073107169" opacity="0.606764298196531" transform="matrix(0.9836522282816984,-0.18007857672818683,0.18007857672818683,0.9836522282816984,429.8961136110078,-127.69745183694414)" fill="none" stroke="#00a19d"></use><use xlink:href="#bbburst-shape-8" width="36.360836001741546" opacity="0.26410181594195736" transform="matrix(0.9937234845483996,-0.11186436544756603,0.11186436544756603,0.9937234845483996,6.038258883144756,6.266627851033547)" fill="none" stroke="#00a19d"></use><use xlink:href="#bbburst-shape-8" width="21.385158416646632" opacity="0.5540889741427415" transform="matrix(0.9977850666523979,0.06652037857280935,-0.06652037857280935,0.9977850666523979,231.35992222044678,-78.53297576764948)" fill="none" stroke="#ffbd9b"></use><use xlink:href="#bbburst-shape-4" width="34.226787493949665" opacity="0.43670957231225516" transform="matrix(0.9749501450506762,0.22242350295251043,-0.22242350295251043,0.9749501450506762,621.6662281431106,211.02548159617544)" fill="#ffbd9b"></use><use xlink:href="#bbburst-shape-7" width="25.363402337993634" opacity="0.4527103711502002" transform="matrix(0.9619924712902501,0.2730759696144596,-0.2730759696144596,0.9619924712902501,254.57672833293645,-32.01217955115982)" fill="#00a19d"></use><use xlink:href="#bbburst-shape-5" width="13.360416119764919" opacity="0.7921028938384204" transform="matrix(0.7087876145785993,-0.7054219428256956,0.7054219428256956,0.7087876145785993,164.1050420444397,42.77275945249511)" fill="#2c2891"></use><use xlink:href="#bbburst-shape-8" width="26.262113264844565" opacity="0.5725061716051385" transform="matrix(0.9954868485711554,-0.09489960127350092,0.09489960127350092,0.9954868485711554,523.6411124498115,83.65229577311925)" fill="none" stroke="#ff5c58"></use><use xlink:href="#bbburst-shape-7" width="27.051093421899395" opacity="0.17551639995127033" transform="matrix(0.8629809993214547,-0.5052363751850648,0.5052363751850648,0.8629809993214547,557.0000093404961,50.6999407722692)" fill="#00a19d"></use><use xlink:href="#bbburst-shape-6" width="30.918069387754265" opacity="0.2765656017622081" transform="matrix(0.9695227545870323,-0.24500128231903825,0.24500128231903825,0.9695227545870323,447.41418388099214,299.26461138399657)" fill="#2c2891"></use><use xlink:href="#bbburst-shape-4" width="27.76698025977671" opacity="0.5600155860299088" transform="matrix(0.8475039679141578,-0.5307890582611496,0.5307890582611496,0.8475039679141578,368.1859660062473,21.06666375055147)" fill="#ff5c58"></use><use xlink:href="#bbburst-shape-6" width="24.319214152561354" opacity="0.5779307737436945" transform="matrix(0.8907896368500101,-0.4544159139825838,0.4544159139825838,0.8907896368500101,343.23169959886616,181.96594469775044)" fill="#00a19d"></use><use xlink:href="#bbburst-shape-14" width="21.61047357513241" opacity="0.7050786010081587" transform="matrix(0.9692697901148833,-0.24600015034680342,0.24600015034680342,0.9692697901148833,367.05910050371733,123.82948491580919)" fill="none" stroke="#ffbd9b"></use><use xlink:href="#bbburst-shape-5" width="31.390071334523935" opacity="0.3602969661581722" transform="matrix(0.773146821599456,-0.6342270825584941,0.6342270825584941,0.773146821599456,-133.89414915484002,-4.214921540329385)" fill="#ff5c58"></use><use xlink:href="#bbburst-shape-1" width="31.234565568562875" opacity="0.2089849972543486" transform="matrix(0.8733177369981104,0.48715103432559714,-0.48715103432559714,0.8733177369981104,335.7142300645729,300.8615792711763)" fill="#00a19d"></use><use xlink:href="#bbburst-shape-8" width="18.18377990770142" opacity="0.6242579363713048" transform="matrix(0.9018476823643048,0.4320541144511089,-0.4320541144511089,0.9018476823643048,632.1621085032816,-119.67606275931269)" fill="none" stroke="#ffa6d5"></use><use xlink:href="#bbburst-shape-4" width="27.331807681187826" opacity="0.44220223217002086" transform="matrix(0.9977268734631779,0.06738758023101661,-0.06738758023101661,0.9977268734631779,315.91384798896894,-231.32616898575841)" fill="#ffa6d5"></use><use xlink:href="#bbburst-shape-8" width="10.999670720551638" opacity="0.8439227173646338" transform="matrix(0.7659753248571742,-0.6428699726305052,0.6428699726305052,0.7659753248571742,69.61746891935178,110.14233006132582)" fill="none" stroke="#ffbd9b"></use><use xlink:href="#bbburst-shape-4" width="26.743611266873966" opacity="0.35010693561862605" transform="matrix(0.7351580253194158,-0.6778957720833324,0.6778957720833324,0.7351580253194158,189.32168116480216,398.89760386445096)" fill="#2c2891"></use><use xlink:href="#bbburst-shape-14" width="11.589009330312253" opacity="0.8548840950347705" transform="matrix(0.9930389464202034,-0.11778646311292514,0.11778646311292514,0.9930389464202034,404.3175924300136,35.015082560948656)" fill="none" stroke="#00a19d"></use><use xlink:href="#bbburst-shape-8" width="21.235758977284164" opacity="0.6933703230520032" transform="matrix(0.9577429547908349,-0.28762550747199145,0.28762550747199145,0.9577429547908349,386.9648325365926,100.2942050950424)" fill="none" stroke="#2c2891"></use><use xlink:href="#bbburst-shape-5" width="30.112060766249268" opacity="0.12864975170503223" transform="matrix(0.8680074357886443,0.49655119717469476,-0.49655119717469476,0.8680074357886443,950.5177274123619,-98.02546977779622)" fill="#00a19d"></use><use xlink:href="#bbburst-shape-5" width="31.355603929086193" opacity="0.17752467888344792" transform="matrix(0.7570675578313875,-0.6533365999844328,0.6533365999844328,0.7570675578313875,61.45720219999055,471.7167077519008)" fill="#ff5c58"></use><use xlink:href="#bbburst-shape-10" width="17.641552136467865" opacity="0.80553416176334" transform="matrix(0.9069450366522842,-0.42124897684360835,0.42124897684360835,0.9069450366522842,184.5073068839376,119.27975352352047)" fill="none" stroke="#ffa6d5"></use><use xlink:href="#bbburst-shape-14" width="13.22880054949343" opacity="0.7397346605911312" transform="matrix(0.8182301080942112,0.5748908506909252,-0.5748908506909252,0.8182301080942112,607.1684653891286,-46.904822565816914)" fill="none" stroke="#00a19d"></use><use xlink:href="#bbburst-shape-12" width="34.26650999137723" opacity="0.42854816346526103" transform="matrix(0.9013514599250478,-0.43308838092355334,0.43308838092355334,0.9013514599250478,51.94849654439756,248.65686599739246)" fill="none" stroke="#ffbd9b"></use><use xlink:href="#bbburst-shape-4" width="17.30251760525171" opacity="0.7251782238586657" transform="matrix(0.8215223171628285,-0.570176360789727,0.570176360789727,0.8215223171628285,260.1083687785121,-2.5079218046243454)" fill="#2c2891"></use><use xlink:href="#bbburst-shape-6" width="7.678608555425853" opacity="0.935517681375298" transform="matrix(0.9805124879222132,0.19645676630900677,-0.19645676630900677,0.9805124879222132,503.55859166913206,3.043487577586234)" fill="#00a19d"></use><use xlink:href="#bbburst-shape-10" width="34.421455107435506" opacity="0.20142968903107838" transform="matrix(0.7595263701775693,0.6504765122622691,-0.6504765122622691,0.7595263701775693,729.3515720695532,-264.8270210897431)" fill="none" stroke="#ff5c58"></use><use xlink:href="#bbburst-shape-5" width="26.321142607788893" opacity="0.48774930241191117" transform="matrix(0.9932492796456003,-0.11599943311713294,0.11599943311713294,0.9932492796456003,317.96136860409774,-225.1785903486828)" fill="#ff5c58"></use><use xlink:href="#bbburst-shape-8" width="13.781082586191108" opacity="0.7289610404838818" transform="matrix(0.7170411982609982,-0.697030788413562,0.697030788413562,0.7170411982609982,23.452784414355676,38.83257516993859)" fill="none" stroke="#00a19d"></use><use xlink:href="#bbburst-shape-10" width="22.065518690586337" opacity="0.6857911278783921" transform="matrix(0.9875916586805402,-0.15704367451323648,0.15704367451323648,0.9875916586805402,210.04695279312642,87.19805465137767)" fill="none" stroke="#ff5c58"></use><use xlink:href="#bbburst-shape-5" width="17.478825350655875" opacity="0.6148509595151694" transform="matrix(0.8113883670447086,-0.584507414687377,0.584507414687377,0.8113883670447086,20.311433860901417,-23.2492137176406)" fill="#00a19d"></use><use xlink:href="#bbburst-shape-8" width="42.757600096521685" opacity="0.13411130387515702" transform="matrix(0.8263112365193573,0.5632137608420543,-0.5632137608420543,0.8263112365193573,324.950704055495,-210.75396710864072)" fill="none" stroke="#ffbd9b"></use><use xlink:href="#bbburst-shape-1" width="8.538480420498194" opacity="0.9003581442146387" transform="matrix(0.7744874493373941,0.6325892749793165,-0.6325892749793165,0.7744874493373941,662.9061207439345,44.65604072836993)" fill="#2c2891"></use><use xlink:href="#bbburst-shape-14" width="11.226663885889202" opacity="0.828756139192931" transform="matrix(0.7691833111235556,0.6390281949092728,-0.6390281949092728,0.7691833111235556,591.0910795937721,136.8659973659744)" fill="none" stroke="#00a19d"></use><use xlink:href="#bbburst-shape-5" width="15.56223504984565" opacity="0.7775315421210569" transform="matrix(0.9930780702794199,-0.11745614641262328,0.11745614641262328,0.9930780702794199,255.4146879172926,-40.414313876999586)" fill="#2c2891"></use><use xlink:href="#bbburst-shape-14" width="32.57979821607118" opacity="0.3523349045202845" transform="matrix(0.9990167548615421,-0.04433422499506987,0.04433422499506987,0.9990167548615421,127.69070064120427,168.9511681097618)" fill="none" stroke="#00a19d"></use><use xlink:href="#bbburst-shape-10" width="7.728307489212693" opacity="0.83395893415502" transform="matrix(0.82838502929621,0.5601591231408423,-0.5601591231408423,0.82838502929621,617.3541474460965,-8.154614889046513)" fill="none" stroke="#ffbd9b"></use><use xlink:href="#bbburst-shape-12" width="23.585712552869918" opacity="0.6244879914648398" transform="matrix(0.7589630106847407,-0.6511337408031886,0.6511337408031886,0.7589630106847407,-28.89675915122706,159.96516151246306)" fill="none" stroke="#ffbd9b"></use><use xlink:href="#bbburst-shape-5" width="18.415968742962693" opacity="0.6519314740373346" transform="matrix(0.7915695382415563,-0.6110790997309999,0.6110790997309999,0.7915695382415563,52.38431562629532,-34.84491593456136)" fill="#00a19d"></use><use xlink:href="#bbburst-shape-5" width="16.71447744574765" opacity="0.6963915012180386" transform="matrix(0.9999262281697074,0.012146531122179711,-0.012146531122179711,0.9999262281697074,425.6577356162359,133.40462898328957)" fill="#ff5c58"></use><use xlink:href="#bbburst-shape-7" width="21.599440085040243" opacity="0.6024686917660957" transform="matrix(0.788907528027994,0.6145119300882285,-0.6145119300882285,0.788907528027994,718.5300312147015,237.09374444386725)" fill="#00a19d"></use><use xlink:href="#bbburst-shape-12" width="16.46840045025136" opacity="0.7792620779829631" transform="matrix(0.8573657148880175,0.5147077140810683,-0.5147077140810683,0.8573657148880175,688.9773654366959,94.52577996982416)" fill="none" stroke="#ff5c58"></use><use xlink:href="#bbburst-shape-10" width="9.929750041792948" opacity="0.9030698411831525" transform="matrix(0.9952404678300512,-0.09744953151976057,0.09744953151976057,0.9952404678300512,314.8539899183443,16.638359511727003)" fill="none" stroke="#2c2891"></use><use xlink:href="#bbburst-shape-1" width="7.985281994709716" opacity="0.9640912486625322" transform="matrix(0.9857550143046838,-0.16818754939998562,0.16818754939998562,0.9857550143046838,319.072754371714,-6.530353531719584)" fill="#ff5c58"></use><use xlink:href="#bbburst-shape-7" width="32.40507431333053" opacity="-0.08784220592230851" transform="matrix(0.8688015768502909,-0.49516039831800773,0.49516039831800773,0.8688015768502909,519.7998784352777,-299.1485722301196)" fill="#ffbd9b"></use><use xlink:href="#bbburst-shape-14" width="27.247728906707327" opacity="0.5543837385374943" transform="matrix(0.8498869359735327,-0.526965080495397,0.526965080495397,0.8498869359735327,212.69458526799983,-130.18635113191863)" fill="none" stroke="#00a19d"></use><use xlink:href="#bbburst-shape-12" width="13.643908960790355" opacity="0.7674892997174566" transform="matrix(0.8242655468666206,-0.5662034159634424,0.5662034159634424,0.8242655468666206,266.53232318157757,39.2731751656558)" fill="none" stroke="#ffbd9b"></use><use xlink:href="#bbburst-shape-8" width="10.992560256134007" opacity="0.8811081598867094" transform="matrix(0.9961497564700907,-0.08766791137342571,0.08766791137342571,0.9961497564700907,325.110453138901,43.04217209662079)" fill="none" stroke="#00a19d"></use><use xlink:href="#bbburst-shape-6" width="29.635466772424408" opacity="0.14282102148324305" transform="matrix(0.9292287040082584,-0.3695050955631499,0.3695050955631499,0.9292287040082584,604.4106390613782,155.6261215127363)" fill="#ffa6d5"></use><use xlink:href="#bbburst-shape-4" width="31.648451001678076" opacity="0.332284025118624" transform="matrix(0.833158845736676,0.5530337582559764,-0.5530337582559764,0.833158845736676,552.5737711828033,-237.30432486312213)" fill="#2c2891"></use><use xlink:href="#bbburst-shape-12" width="10.704905881321771" opacity="0.8286782519397455" transform="matrix(0.9068451474964339,-0.42146397053861095,0.42146397053861095,0.9068451474964339,228.60455820571883,116.5676772206267)" fill="none" stroke="#2c2891"></use><use xlink:href="#bbburst-shape-10" width="37.08194797310182" opacity="0.1663477875492615" transform="matrix(0.8559805912794419,-0.5170079567597553,0.5170079567597553,0.8559805912794419,54.98817541646369,-287.4415381980239)" fill="none" stroke="#ffa6d5"></use><use xlink:href="#bbburst-shape-14" width="12.454863539159437" opacity="0.7808595898993576" transform="matrix(0.8580986737728836,-0.5134848255491279,0.5134848255491279,0.8580986737728836,223.61261342992793,152.41297875118568)" fill="none" stroke="#00a19d"></use><use xlink:href="#bbburst-shape-8" width="42.05372720902124" opacity="0.2959718921713309" transform="matrix(0.9148964931702153,0.40368850217072344,-0.40368850217072344,0.9148964931702153,245.2727077822837,135.9245856169643)" fill="none" stroke="#ffbd9b"></use><use xlink:href="#bbburst-shape-1" width="29.634479774345078" opacity="0.542101696748851" transform="matrix(0.9169504559121542,0.399001079450285,-0.399001079450285,0.9169504559121542,381.2218503412855,151.06420609127332)" fill="#2c2891"></use><use xlink:href="#bbburst-shape-5" width="37.79416639613967" opacity="-0.08554490937711878" transform="matrix(0.960428060905274,-0.27852816702397515,0.27852816702397515,0.960428060905274,-80.23519361185173,-318.9885450853627)" fill="#ff5c58"></use><use xlink:href="#bbburst-shape-5" width="35.090049732411174" opacity="0.01787792033586688" transform="matrix(0.9940649098123118,0.10878857973078077,-0.10878857973078077,0.9940649098123118,161.7405674700267,354.6569610903397)" fill="#00a19d"></use><use xlink:href="#bbburst-shape-5" width="26.66935123413548" opacity="0.18469562036104137" transform="matrix(0.994726436855391,-0.10256371590858943,0.10256371590858943,0.994726436855391,403.81695231862585,365.73340963050794)" fill="#00a19d"></use><use xlink:href="#bbburst-shape-6" width="30.36475928076459" opacity="0.05701186678821668" transform="matrix(0.9869477361710931,0.16104088321527074,-0.16104088321527074,0.9869477361710931,216.90466514916895,-352.18769146609947)" fill="#ffa6d5"></use><use xlink:href="#bbburst-shape-4" width="9.73292438635072" opacity="0.9325223313730883" transform="matrix(0.9932595872920954,-0.11591113946612829,0.11591113946612829,0.9932595872920954,334.4899335109299,30.04903674058056)" fill="#ffa6d5"></use><use xlink:href="#bbburst-shape-10" width="33.12816874232276" opacity="0.2839789328052248" transform="matrix(0.8483708789841858,0.5294023533113542,-0.5294023533113542,0.8483708789841858,916.541667987321,98.40485627870385)" fill="none" stroke="#2c2891"></use><use xlink:href="#bbburst-shape-12" width="20.29377586785938" opacity="0.4804603893871894" transform="matrix(0.997484690156326,0.07088224674584084,-0.07088224674584084,0.997484690156326,622.846675874013,-112.85497869363383)" fill="none" stroke="#ff5c58"></use><use xlink:href="#bbburst-shape-1" width="27.25884111906269" opacity="0.566693192308637" transform="matrix(0.9963296605101947,0.08559910973626023,-0.08559910973626023,0.9963296605101947,614.8161764926075,18.29921887200709)" fill="#ff5c58"></use><use xlink:href="#bbburst-shape-12" width="36.052454806014616" opacity="-0.07487566858883188" transform="matrix(0.7115972660625118,-0.7025875966257579,0.7025875966257579,0.7115972660625118,-248.6045117081324,456.84222905522915)" fill="none" stroke="#ffbd9b"></use><use xlink:href="#bbburst-shape-14" width="38.878485277679665" opacity="-0.09972347627035871" transform="matrix(0.9799703765608417,0.19914331789744297,-0.19914331789744297,0.9799703765608417,812.6430635541843,351.9929064760241)" fill="none" stroke="#00a19d"></use><use xlink:href="#bbburst-shape-8" width="8.47237542492845" opacity="0.9174241151297869" transform="matrix(0.9766256705300371,-0.2149472020328603,0.2149472020328603,0.9766256705300371,343.00597693262966,27.10467800850688)" fill="none" stroke="#ffa6d5"></use><use xlink:href="#bbburst-shape-5" width="12.181304464490015" opacity="0.7999168175824907" transform="matrix(0.8841266814566944,0.46724726980087633,-0.46724726980087633,0.8841266814566944,596.9926639024336,-45.193469269981165)" fill="#2c2891"></use><use xlink:href="#bbburst-shape-8" width="19.77270441230752" opacity="0.6838175500924553" transform="matrix(0.7462150803914266,-0.6657049299775515,0.6657049299775515,0.7462150803914266,263.38190244614344,146.35632278286465)" fill="none" stroke="#2c2891"></use><use xlink:href="#bbburst-shape-4" width="15.783493325204258" opacity="0.6777521292839329" transform="matrix(0.8199854330317374,0.5723843897380099,-0.5723843897380099,0.8199854330317374,755.5915263182848,9.983649603382958)" fill="#2c2891"></use><use xlink:href="#bbburst-shape-1" width="25.9040787473749" opacity="0.35419129677354844" transform="matrix(0.7942742111460397,0.6075594436006542,-0.6075594436006542,0.7942742111460397,898.0703182853099,-44.05775670515095)" fill="#2c2891"></use><use xlink:href="#bbburst-shape-6" width="31.794778176652535" opacity="0.42759573553436037" transform="matrix(0.977716843327584,0.20992802164919422,-0.20992802164919422,0.977716843327584,725.1656791092828,-15.26112424396257)" fill="#2c2891"></use><use xlink:href="#bbburst-shape-7" width="8.440063431140434" opacity="0.8894422471516558" transform="matrix(0.9908766251807579,0.1347720804558265,-0.1347720804558265,0.9908766251807579,483.17957866164784,-33.7246555018836)" fill="#ffa6d5"></use><use xlink:href="#bbburst-shape-14" width="7.019194066646244" opacity="0.9388509313294559" transform="matrix(0.9779939930772354,0.20863304988626397,-0.20863304988626397,0.9779939930772354,480.1228162335509,-19.437432147330583)" fill="none" stroke="#00a19d"></use><use xlink:href="#bbburst-shape-6" width="45.910353592761666" opacity="0.13528428884700394" transform="matrix(0.9999987449900262,0.0015843037501337308,-0.0015843037501337308,0.9999987449900262,630.3459059967735,-295.9664065189809)" fill="#2c2891"></use><use xlink:href="#bbburst-shape-14" width="9.858214354132162" opacity="0.8884149050148666" transform="matrix(0.9942306551363246,-0.10726324807311628,0.10726324807311628,0.9942306551363246,402.39972535715174,3.801933678067428)" fill="none" stroke="#2c2891"></use><use xlink:href="#bbburst-shape-5" width="8.039259857590247" opacity="0.8680468047272993" transform="matrix(0.9722385663122097,-0.23399181647053174,0.23399181647053174,0.9722385663122097,256.26859874025456,-25.223571942406977)" fill="#00a19d"></use><use xlink:href="#bbburst-shape-14" width="27.225211053530252" opacity="0.3900649653748772" transform="matrix(0.9999415119818708,-0.010815387899207057,0.010815387899207057,0.9999415119818708,425.3632221278035,-270.8262496720926)" fill="none" stroke="#00a19d"></use><use xlink:href="#bbburst-shape-12" width="24.232934615712953" opacity="0.31708307370580924" transform="matrix(0.9250745194096915,-0.3797856415649863,0.3797856415649863,0.9250745194096915,214.58459495594377,341.0354554412214)" fill="none" stroke="#2c2891"></use><use xlink:href="#bbburst-shape-12" width="8.535329348367972" opacity="0.906944855911502" transform="matrix(0.876024616392291,0.4822663905713722,-0.4822663905713722,0.876024616392291,595.5499608817589,88.9052234213791)" fill="none" stroke="#2c2891"></use><use xlink:href="#bbburst-shape-5" width="16.418973439065535" opacity="0.5970172382158276" transform="matrix(0.7368043112485615,-0.6761060618908346,0.6761060618908346,0.7368043112485615,273.8182313889081,9.378889896160388)" fill="#ffbd9b"></use><use xlink:href="#bbburst-shape-7" width="28.22718958399118" opacity="0.27834809591568554" transform="matrix(0.9676808460769478,0.25217807227394395,-0.25217807227394395,0.9676808460769478,218.6593663021784,-173.39010039363117)" fill="#00a19d"></use><use xlink:href="#bbburst-shape-4" width="20.784531003761337" opacity="0.5899597289147549" transform="matrix(0.8463946615024154,-0.532556172605493,0.532556172605493,0.8463946615024154,190.27568063803125,251.11457591819072)" fill="#2c2891"></use><use xlink:href="#bbburst-shape-14" width="26.798494089178227" opacity="0.09496277444248247" transform="matrix(0.8451946555174141,0.5344585992242988,-0.5344585992242988,0.8451946555174141,789.0445486915887,-307.2094567984852)" fill="none" stroke="#00a19d"></use><use xlink:href="#bbburst-shape-12" width="37.53765484375212" opacity="0.32872414024009855" transform="matrix(0.7535326207037173,0.6574105182725537,-0.6574105182725537,0.7535326207037173,867.1585631119173,-122.60241101717466)" fill="none" stroke="#ffa6d5"></use><use xlink:href="#bbburst-shape-8" width="27.535936851652238" opacity="0.4938365038645449" transform="matrix(0.9559540433396746,0.29351638288607934,-0.29351638288607934,0.9559540433396746,574.7908835729463,230.1507679780047)" fill="none" stroke="#2c2891"></use><use xlink:href="#bbburst-shape-14" width="28.29053374724684" opacity="0.4819511129655225" transform="matrix(0.9998570595165396,0.016907410651516335,-0.016907410651516335,0.9998570595165396,173.53392202036656,79.52779752806578)" fill="none" stroke="#ffbd9b"></use><use xlink:href="#bbburst-shape-12" width="25.19544078058685" opacity="0.4371453074950684" transform="matrix(0.7652622325003325,-0.6437186617681726,0.6437186617681726,0.7652622325003325,340.0818340987549,247.58888529340868)" fill="none" stroke="#00a19d"></use><use xlink:href="#bbburst-shape-12" width="49.08243719491576" opacity="0.10224110940034903" transform="matrix(0.9900912743652939,-0.14042531262457045,0.14042531262457045,0.9900912743652939,-29.676649519974823,210.47507420251065)" fill="none" stroke="#ff5c58"></use><use xlink:href="#bbburst-shape-6" width="16.919585931813536" opacity="0.6732678414218052" transform="matrix(0.8601713266111465,-0.5100051851462105,0.5100051851462105,0.8601713266111465,202.76542464722903,-86.11099709360539)" fill="#ffa6d5"></use><use xlink:href="#bbburst-shape-7" width="35.92264863236543" opacity="0.34016805437166575" transform="matrix(0.8094521272824348,-0.5871858765654543,0.5871858765654543,0.8094521272824348,31.400788612051485,358.834107311906)" fill="#ffbd9b"></use><use xlink:href="#bbburst-shape-6" width="16.650088038431562" opacity="0.7664725115059154" transform="matrix(0.9740154333293375,-0.22648164525246392,0.22648164525246392,0.9740154333293375,406.2604674629695,17.415065180802003)" fill="#00a19d"></use><use xlink:href="#bbburst-shape-8" width="21.09218047049385" opacity="0.6054184992686039" transform="matrix(0.8664995386037853,0.4991778737077869,-0.4991778737077869,0.8664995386037853,485.7311368395036,191.47012254988965)" fill="none" stroke="#ffbd9b"></use><use xlink:href="#bbburst-shape-10" width="12.70114722741817" opacity="0.8294468117195004" transform="matrix(0.8164592777206381,-0.5774030202760407,0.5774030202760407,0.8164592777206381,135.2603219105609,5.85945058803452)" fill="none" stroke="#00a19d"></use><use xlink:href="#bbburst-shape-14" width="28.963284714493053" opacity="0.16328059856780008" transform="matrix(0.7348745239821681,0.6782030920026698,-0.6782030920026698,0.7348745239821681,292.3848728460623,174.86111875721775)" fill="none" stroke="#ffa6d5"></use><use xlink:href="#bbburst-shape-4" width="47.840390377990374" opacity="0.1873193307127473" transform="matrix(0.9991007186444664,0.04239992929370011,-0.04239992929370011,0.9991007186444664,36.508762077183405,-81.93001563863521)" fill="#00a19d"></use><use xlink:href="#bbburst-shape-10" width="29.683972157101604" opacity="0.011567808504417187" transform="matrix(0.9611511703434633,-0.27602251311693904,0.27602251311693904,0.9611511703434633,632.9696591127604,-244.81194958007916)" fill="none" stroke="#00a19d"></use><use xlink:href="#bbburst-shape-5" width="30.149486230169998" opacity="0.46415597481491666" transform="matrix(0.796443546062627,0.6047128888449362,-0.6047128888449362,0.796443546062627,616.6435659270447,313.0729835432968)" fill="#ffa6d5"></use><use xlink:href="#bbburst-shape-8" width="30.017622967004744" opacity="0.4344327509863135" transform="matrix(0.9991428785388144,0.04139454390583308,-0.04139454390583308,0.9991428785388144,646.6993907052084,68.1359666080782)" fill="none" stroke="#ff5c58"></use><use xlink:href="#bbburst-shape-5" width="34.916777092416154" opacity="0.29485707486673807" transform="matrix(0.9990704947528587,-0.04310622361420781,0.04310622361420781,0.9990704947528587,187.78670785877432,-261.8812613773691)" fill="#ffa6d5"></use><use xlink:href="#bbburst-shape-6" width="12.90384285185574" opacity="0.8345090605657897" transform="matrix(0.9232849845395464,0.3841156561815849,-0.3841156561815849,0.9232849845395464,621.5220716180113,37.9358947776156)" fill="#2c2891"></use><use xlink:href="#bbburst-shape-12" width="16.906611870625643" opacity="0.7960841289649951" transform="matrix(0.8743184684980331,-0.4853526714083831,0.4853526714083831,0.8743184684980331,261.41059206017985,121.106836966468)" fill="none" stroke="#00a19d"></use><use xlink:href="#bbburst-shape-14" width="8.300704218331857" opacity="0.885873403749723" transform="matrix(0.9929691946912222,-0.11837304758375317,0.11837304758375317,0.9929691946912222,394.6560829125386,-19.26863638224978)" fill="none" stroke="#2c2891"></use><use xlink:href="#bbburst-shape-5" width="9.967497902337993" opacity="0.8212648812895644" transform="matrix(0.890527471105192,-0.454929470585267,0.454929470585267,0.890527471105192,276.7917376484896,-3.689690986817368)" fill="#ffa6d5"></use><use xlink:href="#bbburst-shape-6" width="43.88603773027255" opacity="0.25331718037254236" transform="matrix(0.8924272602989177,0.45119129543395203,-0.45119129543395203,0.8924272602989177,804.773797417292,264.26409749128277)" fill="#2c2891"></use><use xlink:href="#bbburst-shape-5" width="21.571262128221605" opacity="0.6853786162477977" transform="matrix(0.954438363577715,-0.29840812678459927,0.29840812678459927,0.954438363577715,133.91625575317718,-16.40740051737913)" fill="#2c2891"></use><use xlink:href="#bbburst-shape-6" width="9.788150241601889" opacity="0.8596638411591602" transform="matrix(0.9336813396487074,-0.3581049510852861,0.3581049510852861,0.9336813396487074,191.28254573639015,11.590591528710888)" fill="#2c2891"></use><use xlink:href="#bbburst-shape-7" width="23.874019183228302" opacity="0.6788111762813209" transform="matrix(0.9421841452785944,-0.3350955630646944,0.3350955630646944,0.9421841452785944,398.66963856502605,15.171890068668802)" fill="#ffbd9b"></use><use xlink:href="#bbburst-shape-12" width="17.832756194482663" opacity="0.6157925507633919" transform="matrix(0.8111994041548011,0.5847696355821629,-0.5847696355821629,0.8111994041548011,559.6817373379915,-89.09850719610665)" fill="none" stroke="#ffbd9b"></use><use xlink:href="#bbburst-shape-10" width="8.305478899235478" opacity="0.8874668810674494" transform="matrix(0.8676610946790955,0.49715613722478946,-0.49715613722478946,0.8676610946790955,588.740566126545,0.6524181294420259)" fill="none" stroke="#ffa6d5"></use><use xlink:href="#bbburst-shape-7" width="29.453509448243633" opacity="0.1103605537259078" transform="matrix(0.8175195283610058,0.5759008775374443,-0.5759008775374443,0.8175195283610058,786.9085641635728,427.5143485877746)" fill="#00a19d"></use><use xlink:href="#bbburst-shape-14" width="36.89335470406591" opacity="0.05688475395100501" transform="matrix(0.8562818097038135,0.5165089179969327,-0.5165089179969327,0.8562818097038135,852.106431423425,382.40693654511915)" fill="none" stroke="#ffa6d5"></use><use xlink:href="#bbburst-shape-6" width="30.966978364701667" opacity="0.19626453388255005" transform="matrix(0.8918367335426389,-0.45235742583049976,0.45235742583049976,0.8918367335426389,194.7001504918198,-311.2574128148777)" fill="#ffbd9b"></use><use xlink:href="#bbburst-shape-4" width="34.50496539661335" opacity="0.30597036284945933" transform="matrix(0.9997135041929761,-0.023935528701083036,0.023935528701083036,0.9997135041929761,521.8153739825161,-274.1170093697691)" fill="#ffa6d5"></use><use xlink:href="#bbburst-shape-12" width="9.910677615986192" opacity="0.8523529523526309" transform="matrix(0.9999805399389302,0.006238569022271397,-0.006238569022271397,0.9999805399389302,425.60245604233296,-60.26520389714517)" fill="none" stroke="#ffa6d5"></use><use xlink:href="#bbburst-shape-7" width="13.281431726211533" opacity="0.7360356795944314" transform="matrix(0.9516975885360339,-0.3070369684169934,0.3070369684169934,0.9516975885360339,304.13816444742,-92.64470533980625)" fill="#ffa6d5"></use><use xlink:href="#bbburst-shape-5" width="16.76005032791001" opacity="0.6132871559324946" transform="matrix(0.9617881900037811,0.27379459010223445,-0.27379459010223445,0.9617881900037811,476.3872180194035,-159.21505271904388)" fill="#ff5c58"></use></svg>